<svg id="Layer_1" data-name="Layer 1" xmlns="http://www.w3.org/2000/svg" viewBox="0 0 162.97 185.38"><defs><style>.cls-1{fill:#fff;}</style></defs><path class="cls-1" d="M81.6,17.92c-1.56,0-5.13-3.32-5.13-4.13v-.64h.84l.26.15a1.14,1.14,0,0,0,.63.2,1,1,0,0,0,.83-.42,2.38,2.38,0,0,0,.3-2.15,3.17,3.17,0,0,0-1.92-2.09,3,3,0,0,0-1-.22c-.41,0-.75.14-1.14.81l-.46.8-.59-.7a2.29,2.29,0,0,1,.29-3.29,3.25,3.25,0,0,1,2.28-.89,5.57,5.57,0,0,1,1.87.37c.11-2.67.75-4,2.44-5.43L81.43,0l.39.22c1.67.92,2.61,2.83,2.69,5.43a4.22,4.22,0,0,1,1.66-.36,3.8,3.8,0,0,1,2.48,1A2.29,2.29,0,0,1,89,9.47l-.53.77L88,9.47a1.91,1.91,0,0,0-1.58-.82,2.44,2.44,0,0,0-1.9,1,2.9,2.9,0,0,0-.58,3.07,1,1,0,0,0,.9.73,1.68,1.68,0,0,0,.9-.31l.86.92C86.07,14.68,83.49,17.92,81.6,17.92Z" transform="translate(0)"/><path class="cls-1" d="M88.24,6.73c-1.4-1.16-2.89-1-4.39,0,.16-2.93-.68-5-2.35-5.95-1.73,1.44-2.22,2.75-2.22,5.88-2-.92-3.3-.91-4.35,0a1.67,1.67,0,0,0-.23,2.41c.66-1.14,1.48-1.39,2.92-.88,2.16.76,3.2,3.59,1.92,5.22a1.7,1.7,0,0,1-2.33.37c-.76-.5,2.84,3.46,4.39,3.46s4.45-3.63,4.45-3.63a1.69,1.69,0,0,1-2.74-.72A3.56,3.56,0,0,1,84,9.24a2.78,2.78,0,0,1,4.51-.12A1.69,1.69,0,0,0,88.24,6.73Z" transform="translate(0)"/><rect class="cls-1" x="79.83" y="12.52" width="3.51" height="167.95"/><rect class="cls-1" x="79.83" y="12.51" width="3.51" height="167.97"/><rect class="cls-1" x="80.47" y="13.15" width="2.22" height="166.69"/><path class="cls-1" d="M101.63,175.74c-11.67,0-39.5-13-62.31-32.36C6.37,115.41-2.34,80.32.5,56.81,2.6,39.43,11,25.26,23.52,17.93a41.61,41.61,0,0,1,21-5.63,45.55,45.55,0,0,1,4.8.26c12.21,1.32,24.27,7.58,34,17.61l1.14,1.18-4.09,2.3-.69-.71c-8.92-9.23-19.89-15-30.91-16.16a39.22,39.22,0,0,0-4.19-.23,36.35,36.35,0,0,0-18.35,4.93c-11.34,6.63-19,19.68-20.91,35.79-2.72,22.5,5.67,56.13,37.37,83,30.14,25.58,53,31.18,59.24,31.18l.7,0a7.17,7.17,0,0,0,4-1.36c-2.84-1-5.83-2.29-5.61-4.43.1-.93.75-2.6,3.95-3.3a6.42,6.42,0,0,1,1.44-.16,6,6,0,0,1,4.33,1.8c2.09,2.13,2.49,5.47.87,7.45-.73.94-3,3.82-8.53,4.23C102.54,175.72,102.09,175.74,101.63,175.74Zm4.78-9.24,1.17,1.17a2.75,2.75,0,0,0-.54-.86,1,1,0,0,0-.7-.35Z" transform="translate(0)"/><path class="cls-1" d="M101.63,175.1c-11.56,0-39.19-12.94-61.9-32.21C7,115.09-1.68,80.24,1.14,56.89,3.21,39.71,11.49,25.71,23.85,18.48a41,41,0,0,1,20.66-5.54,44.38,44.38,0,0,1,4.73.26c12.06,1.31,24,7.49,33.57,17.41l.56.59-2.94,1.65-.34-.35c-9-9.34-20.14-15.15-31.3-16.36a40.68,40.68,0,0,0-4.26-.23,37,37,0,0,0-18.68,5C14.34,27.66,6.6,40.88,4.63,57.19c-2.74,22.67,5.7,56.53,37.6,83.6,30.29,25.7,53.33,31.33,59.65,31.33l.75,0c3.57-.27,4.91-2,5.48-2.71l.14-.18a2.84,2.84,0,0,0-.76-2.85,1.62,1.62,0,0,0-1.17-.54,1.81,1.81,0,0,0-.41.05,2.32,2.32,0,0,0-.92.33h0c.08,0,.32.54.82.71l.13,0,1.51,1.51-.68,1c-2.8-1-5.37-2.16-5.21-3.76.08-.76.64-2.13,3.45-2.75a6.39,6.39,0,0,1,1.3-.14,5.36,5.36,0,0,1,3.87,1.61c1.87,1.9,2.25,4.86.84,6.59-.7.89-2.83,3.61-8.09,4C102.51,175.08,102.08,175.1,101.63,175.1Z" transform="translate(0)"/><path class="cls-1" d="M101.63,175.11c-11.56,0-39.19-13-61.89-32.21C7,115.1-1.68,80.24,1.14,56.89,3.22,39.71,11.49,25.7,23.85,18.47a41,41,0,0,1,20.66-5.54,44.38,44.38,0,0,1,4.73.26c12.06,1.31,24,7.49,33.56,17.41l.58.6-2.95,1.66-.34-.35c-9-9.34-20.13-15.15-31.3-16.36a40.68,40.68,0,0,0-4.26-.23,37,37,0,0,0-18.68,5C14.34,27.67,6.6,40.89,4.63,57.2c-2.74,22.66,5.7,56.51,37.59,83.58,30.29,25.7,53.34,31.33,59.66,31.33l.75,0c3.57-.27,4.91-2,5.48-2.71l.14-.17a2.85,2.85,0,0,0-.75-2.84,1.67,1.67,0,0,0-1.18-.55,1.71,1.71,0,0,0-.41.06,2.63,2.63,0,0,0-.92.32h0c.09,0,.31.51.81.69l.14.05,1.51,1.52-.67,1c-2.81-1-5.39-2.16-5.22-3.77.08-.77.64-2.14,3.45-2.75a5.76,5.76,0,0,1,1.3-.15,5.38,5.38,0,0,1,3.87,1.61c1.88,1.9,2.25,4.87.83,6.61-.69.88-2.82,3.61-8.08,4-.43,0-.86.05-1.31.05Z" transform="translate(0)"/><path class="cls-1" d="M101.63,174.47c.43,0,.85,0,1.26-.05,5-.37,7-2.93,7.64-3.77,1.22-1.5.8-4.13-.8-5.75a4.81,4.81,0,0,0-4.57-1.29c-2.42.53-2.89,1.6-3,2.19-.14,1.32,3.32,2.58,4.79,3.11l-1.4-1.41a1.78,1.78,0,0,1-1.17-1.56c0-.26.53-.51,1.34-.69a2.2,2.2,0,0,1,2.18.67c1.11,1.12,1.36,3,.8,3.69l-.13.17c-.63.79-2.09,2.66-5.94,2.95-7.05.52-31.25-6.32-60.87-31.46C9.72,114,1.24,80,4,57.12c2-16.51,9.85-29.9,21.54-36.74a37.85,37.85,0,0,1,23.33-4.87c11.31,1.23,22.57,7.11,31.69,16.55l1.79-1c-9.48-9.82-21.26-15.93-33.17-17.22a40.4,40.4,0,0,0-25,5.2C12,26.16,3.83,40,1.78,57-1,80.15,7.59,114.77,40.15,142.41,63.53,162.24,90.57,174.47,101.63,174.47Z" transform="translate(0)"/><path class="cls-1" d="M61.35,175.74c-.47,0-.92,0-1.36-.05-5.54-.41-7.81-3.3-8.55-4.25-1.61-2-1.21-5.3.88-7.43a6,6,0,0,1,4.33-1.8,6.42,6.42,0,0,1,1.44.16c3.21.7,3.85,2.37,3.95,3.3.22,2.14-2.76,3.41-5.59,4.42a7,7,0,0,0,3.94,1.37l.7,0c6.26,0,29.1-5.6,59.24-31.18,31.7-26.9,40.09-60.53,37.37-83-1.94-16.11-9.56-29.16-20.9-35.79a36.41,36.41,0,0,0-18.36-4.93,39,39,0,0,0-4.18.23c-11,1.2-22,6.93-30.91,16.16l-.69.71-4.1-2.3,1.15-1.18c9.68-10,21.74-16.29,34-17.61a45.41,45.41,0,0,1,4.8-.26,41.58,41.58,0,0,1,21,5.63c12.53,7.33,20.92,21.5,23,38.88,2.84,23.51-5.86,58.6-38.81,86.57C100.84,162.74,73,175.74,61.35,175.74Zm-4.74-9.28a1,1,0,0,0-.67.35,2.43,2.43,0,0,0-.54.86Z" transform="translate(0)"/><path class="cls-1" d="M61.35,175.1c-.45,0-.89,0-1.32,0-5.25-.39-7.39-3.11-8.09-4-1.41-1.72-1-4.68.84-6.58a5.38,5.38,0,0,1,3.87-1.61A6.39,6.39,0,0,1,58,163c2.82.62,3.37,2,3.45,2.75.17,1.6-2.4,2.76-5.21,3.76l-.68-1L57,167l.14,0a1.25,1.25,0,0,0,.74-.86s0,0,0,0-.36-.1-.78-.19a1.91,1.91,0,0,0-.42-.05,1.63,1.63,0,0,0-1.17.54,2.86,2.86,0,0,0-.76,2.85l.14.18c.58.73,1.91,2.44,5.48,2.71l.75,0c6.32,0,29.37-5.63,59.66-31.33,31.89-27.07,40.33-60.93,37.59-83.6-2-16.31-9.7-29.53-21.22-36.27a37,37,0,0,0-18.68-5,40.34,40.34,0,0,0-4.25.23c-11.17,1.21-22.29,7-31.3,16.36l-.35.35L79.6,31.2l.57-.59c9.58-9.92,21.5-16.1,33.56-17.41a44.43,44.43,0,0,1,4.74-.26,41,41,0,0,1,20.66,5.54c12.35,7.23,20.63,21.23,22.7,38.41,2.82,23.35-5.83,58.2-38.59,86C100.53,162.16,72.9,175.1,61.35,175.1Z" transform="translate(0)"/><path class="cls-1" d="M61.35,175.11c-.45,0-.89,0-1.32-.05-5.25-.39-7.39-3.12-8.09-4-1.41-1.73-1-4.7.84-6.6a5.38,5.38,0,0,1,3.87-1.61A5.76,5.76,0,0,1,58,163c2.81.61,3.37,2,3.45,2.75.17,1.61-2.41,2.77-5.21,3.77l-.67-1.06L57,166.94l.13-.05a1.22,1.22,0,0,0,.74-.84l0,0c-.11,0-.36-.1-.78-.19a1.9,1.9,0,0,0-.42-.06,1.63,1.63,0,0,0-1.17.55,2.84,2.84,0,0,0-.76,2.84l.14.17c.57.73,1.91,2.44,5.48,2.71l.75,0c6.33,0,29.37-5.63,59.66-31.33,31.89-27.07,40.33-60.92,37.59-83.58-2-16.31-9.7-29.53-21.22-36.27a37,37,0,0,0-18.68-5,40.34,40.34,0,0,0-4.25.23c-11.17,1.21-22.29,7-31.31,16.36l-.34.35-3-1.66.58-.6c9.58-9.92,21.5-16.1,33.56-17.41a44.43,44.43,0,0,1,4.74-.26,40.92,40.92,0,0,1,20.65,5.54c12.36,7.23,20.64,21.24,22.71,38.42,2.82,23.35-5.83,58.21-38.59,86-22.71,19.26-50.34,32.21-61.89,32.21Z" transform="translate(0)"/><path class="cls-1" d="M61.35,174.47c-.44,0-.86,0-1.27-.05-5-.37-7-2.93-7.63-3.77-1.23-1.5-.81-4.13.79-5.75a4.83,4.83,0,0,1,4.58-1.29c2.41.53,2.88,1.6,2.94,2.19.14,1.32-3.32,2.58-4.79,3.11l1.41-1.41a1.77,1.77,0,0,0,1.16-1.56c0-.26-.53-.51-1.34-.69a2.2,2.2,0,0,0-2.18.67c-1.1,1.12-1.36,3-.79,3.69l.13.17c.62.79,2.08,2.66,5.94,2.95,7,.52,31.24-6.32,60.87-31.46C153.25,114,161.74,80,159,57.12c-2-16.51-9.84-29.9-21.53-36.74a37.86,37.86,0,0,0-23.33-4.87c-11.32,1.23-22.58,7.11-31.7,16.55l-1.79-1c9.48-9.82,21.26-15.93,33.17-17.22a40.4,40.4,0,0,1,25,5.2C151,26.16,159.15,40,161.2,57c2.8,23.19-5.81,57.81-38.38,85.45C99.45,162.24,72.4,174.47,61.35,174.47Z" transform="translate(0)"/><polygon class="cls-1" points="74.8 178.69 81.58 172.01 88.36 178.69 81.58 185.38 74.8 178.69"/><polygon class="cls-1" points="81.58 184.49 75.71 178.69 81.58 172.9 87.45 178.69 81.58 184.49"/><path class="cls-1" d="M81.93,22.4c-1-5.23-.78-5.45-.56-5.7,5-5.62,10.54-6.8,14.31-6.8a15.35,15.35,0,0,1,4.39.58l-.29,1.23a10.92,10.92,0,0,0-1.45-.08c-4.24,0-12.86,2.26-15.15,10.82Z" transform="translate(0)"/><path class="cls-1" d="M82.56,22.29c2.51-9.39,12.37-11.82,17.3-11.21,0,0-9.76-3.25-18,6C81.64,17.35,82.56,22.29,82.56,22.29Z" transform="translate(0)"/><path class="cls-1" d="M79.9,22.45C77.61,13.89,69,11.63,64.75,11.63a10.92,10.92,0,0,0-1.45.08L63,10.48A15.35,15.35,0,0,1,67.4,9.9c3.77,0,9.32,1.18,14.31,6.8.22.25.42.47-.56,5.7Z" transform="translate(0)"/><path class="cls-1" d="M80.52,22.29C78,12.9,68.15,10.47,63.22,11.08c0,0,9.76-3.25,18,6C81.44,17.35,80.52,22.29,80.52,22.29Z" transform="translate(0)"/><path class="cls-1" d="M77.54,146.09q-21.18,0-35.53-14.93T27.77,93.78a53.77,53.77,0,0,1,9-30.09q9-13.66,25.35-22.22l1.27,1.85Q50.93,53.73,45.83,62.88q-5,8.91-5,21.29,0,14.35,8.91,27.67a13.09,13.09,0,0,0,5.56-7.41c.46-1.47.69-4.59.69-9.38V60L88,32.79q17.12,8.67,34,8.68h.7L107.86,55.59a95.81,95.81,0,0,1-24.19-8.11v82.41h2.2a53.16,53.16,0,0,0,19.1-4,65.74,65.74,0,0,0,18.63-11l1.74,2.09Q106.71,146.09,77.54,146.09ZM72,78.16c0,3.47,0,6.32-.17,8.56s-.25,3.9-.41,5a16,16,0,0,1-.81,3.24,19.54,19.54,0,0,1-1.5,3.24,30.18,30.18,0,0,1-3.88,5,66.45,66.45,0,0,1-6.65,6.19L52,115A41.86,41.86,0,0,0,80.2,129.54V45.63L72,52.92Z" transform="translate(0)"/><path class="cls-1" d="M38.44,116.93l1.74-2.09a65.74,65.74,0,0,0,18.63,11,53.16,53.16,0,0,0,19.1,4h2.2V47.48a95.68,95.68,0,0,1-24.19,8.11L41.11,41.47h.69q16.91,0,34-8.68L107.77,60V95.05c0,4.79.23,7.91.7,9.38a13.12,13.12,0,0,0,5.55,7.41q8.91-13.32,8.91-27.67,0-12.37-5-21.29-5.1-9.15-17.6-19.56l1.28-1.85Q118,50,127,63.69a53.77,53.77,0,0,1,9,30.09q0,22.34-14.23,37.38T86.24,146.09Q57.08,146.09,38.44,116.93Zm53.36-64-8.22-7.29v83.91A41.86,41.86,0,0,0,111.82,115l-6.59-5.56a66.67,66.67,0,0,1-6.66-6.19,30.18,30.18,0,0,1-3.88-5,21.31,21.31,0,0,1-1.5-3.24,16,16,0,0,1-.81-3.24c-.16-1.08-.29-2.74-.41-5s-.17-5.09-.17-8.56Z" transform="translate(0)"/></svg>